<svg width="240" height="15" viewBox="0 0 240 15" fill="none" xmlns="http://www.w3.org/2000/svg">
<path d="M176.996 12H176.416V5.53125C176.416 5.30078 176.416 5.09961 176.416 4.92773C176.416 4.75195 176.418 4.5957 176.422 4.45898C176.426 4.31836 176.432 4.18555 176.439 4.06055C176.334 4.16602 176.232 4.25781 176.135 4.33594C176.037 4.41406 175.912 4.51367 175.76 4.63477L174.494 5.5957L174.166 5.17383L176.498 3.43359H176.996V12ZM184.66 3.43359H187.009C188.068 3.43359 188.841 3.59961 189.33 3.93164C189.822 4.26367 190.068 4.79297 190.068 5.51953C190.068 5.84766 190.003 6.14648 189.875 6.41602C189.75 6.68555 189.562 6.91211 189.312 7.0957C189.066 7.27539 188.761 7.39844 188.398 7.46484V7.50586C188.832 7.57227 189.189 7.69336 189.47 7.86914C189.755 8.04102 189.966 8.26953 190.103 8.55469C190.244 8.83594 190.314 9.17188 190.314 9.5625C190.314 10.125 190.185 10.5859 189.927 10.9453C189.673 11.3047 189.32 11.5703 188.867 11.7422C188.414 11.9141 187.89 12 187.296 12H184.66V3.43359ZM185.263 7.24219H187.162C187.966 7.24219 188.548 7.10156 188.908 6.82031C189.267 6.53906 189.447 6.12305 189.447 5.57227C189.447 5.00195 189.253 4.5918 188.867 4.3418C188.48 4.0918 187.861 3.9668 187.009 3.9668H185.263V7.24219ZM185.263 7.76953V11.4668H187.279C188.072 11.4668 188.669 11.3066 189.072 10.9863C189.474 10.6621 189.675 10.1797 189.675 9.53906C189.675 9.11719 189.582 8.77734 189.394 8.51953C189.207 8.25781 188.925 8.06836 188.55 7.95117C188.179 7.83008 187.716 7.76953 187.162 7.76953H185.263ZM194.497 5.51953C195.197 5.51953 195.72 5.69531 196.068 6.04688C196.415 6.39844 196.589 6.95898 196.589 7.72852V12H196.132L196.027 10.8867H195.991C195.855 11.125 195.689 11.3379 195.493 11.5254C195.298 11.709 195.058 11.8535 194.773 11.959C194.491 12.0645 194.148 12.1172 193.741 12.1172C193.331 12.1172 192.98 12.0488 192.687 11.9121C192.398 11.7754 192.173 11.5762 192.013 11.3145C191.857 11.0527 191.779 10.7344 191.779 10.3594C191.779 9.72656 192.04 9.24609 192.564 8.91797C193.087 8.58594 193.839 8.39844 194.82 8.35547L196.003 8.29688V7.83398C196.003 7.18164 195.874 6.7168 195.616 6.43945C195.359 6.16211 194.978 6.02344 194.474 6.02344C194.146 6.02344 193.829 6.06641 193.525 6.15234C193.224 6.23438 192.917 6.35352 192.605 6.50977L192.417 6.01758C192.722 5.87305 193.048 5.75391 193.396 5.66016C193.747 5.56641 194.115 5.51953 194.497 5.51953ZM195.997 8.75977L194.884 8.80664C194.075 8.8457 193.46 8.99023 193.038 9.24023C192.616 9.49023 192.406 9.86523 192.406 10.3652C192.406 10.7676 192.531 11.0762 192.781 11.291C193.034 11.5059 193.386 11.6133 193.835 11.6133C194.534 11.6133 195.068 11.4141 195.435 11.0156C195.806 10.6172 195.993 10.0742 195.997 9.38672V8.75977ZM200.597 11.6074C200.78 11.6074 200.95 11.5938 201.106 11.5664C201.267 11.5391 201.407 11.5039 201.528 11.4609V11.9531C201.403 11.9961 201.257 12.0332 201.089 12.0645C200.921 12.0996 200.735 12.1172 200.532 12.1172C200.173 12.1172 199.874 12.0508 199.636 11.918C199.397 11.7812 199.218 11.5762 199.097 11.3027C198.976 11.0254 198.915 10.6738 198.915 10.248V6.12305H197.966V5.77148L198.909 5.58984L199.114 4.08984H199.507V5.63086H201.493V6.12305H199.507V10.2129C199.507 10.6699 199.591 11.0176 199.759 11.2559C199.931 11.4902 200.21 11.6074 200.597 11.6074ZM203.725 2.88281V5.85938C203.725 6.03125 203.721 6.19141 203.714 6.33984C203.71 6.48828 203.702 6.63867 203.69 6.79102H203.731C203.837 6.54883 203.987 6.33203 204.182 6.14062C204.382 5.94922 204.626 5.79688 204.915 5.68359C205.208 5.57031 205.546 5.51367 205.929 5.51367C206.413 5.51367 206.819 5.59766 207.147 5.76562C207.479 5.92969 207.731 6.18164 207.903 6.52148C208.075 6.86133 208.161 7.29883 208.161 7.83398V12H207.575V7.86914C207.575 7.23633 207.43 6.77148 207.141 6.47461C206.852 6.17773 206.432 6.0293 205.882 6.0293C205.413 6.0293 205.018 6.12109 204.698 6.30469C204.378 6.48438 204.136 6.75781 203.971 7.125C203.807 7.48828 203.725 7.94336 203.725 8.49023V12H203.134V2.88281H203.725ZM213.001 5.51953C213.169 5.51953 213.327 5.5293 213.475 5.54883C213.624 5.56836 213.762 5.5957 213.891 5.63086L213.797 6.17578C213.669 6.14062 213.538 6.11523 213.405 6.09961C213.272 6.08008 213.129 6.07031 212.977 6.07031C212.676 6.07031 212.407 6.12695 212.169 6.24023C211.934 6.35352 211.735 6.51562 211.571 6.72656C211.407 6.9375 211.282 7.19141 211.196 7.48828C211.11 7.78516 211.067 8.11719 211.067 8.48438V12H210.469V5.63086H210.979L211.038 6.83203H211.073C211.17 6.58594 211.307 6.36523 211.483 6.16992C211.663 5.9707 211.879 5.8125 212.133 5.69531C212.387 5.57812 212.676 5.51953 213.001 5.51953ZM220.664 8.80664C220.664 9.29883 220.604 9.74805 220.483 10.1543C220.362 10.5566 220.182 10.9043 219.944 11.1973C219.705 11.4902 219.409 11.7168 219.053 11.877C218.701 12.0371 218.291 12.1172 217.823 12.1172C217.377 12.1172 216.981 12.0391 216.633 11.8828C216.285 11.7227 215.991 11.4961 215.748 11.2031C215.51 10.9102 215.328 10.5625 215.203 10.1602C215.078 9.75391 215.016 9.30273 215.016 8.80664C215.016 8.12305 215.129 7.53516 215.356 7.04297C215.586 6.54688 215.914 6.16797 216.34 5.90625C216.77 5.64062 217.284 5.50781 217.881 5.50781C218.498 5.50781 219.012 5.64844 219.422 5.92969C219.836 6.20703 220.147 6.59375 220.354 7.08984C220.561 7.58594 220.664 8.1582 220.664 8.80664ZM215.625 8.80664C215.625 9.36523 215.705 9.85352 215.866 10.2715C216.026 10.6895 216.268 11.0156 216.592 11.25C216.92 11.4844 217.334 11.6016 217.834 11.6016C218.346 11.6016 218.766 11.4844 219.094 11.25C219.422 11.0156 219.664 10.6875 219.821 10.2656C219.977 9.84375 220.055 9.35742 220.055 8.80664C220.055 8.27148 219.981 7.79492 219.832 7.37695C219.684 6.95898 219.45 6.63086 219.129 6.39258C218.809 6.15039 218.391 6.0293 217.875 6.0293C217.137 6.0293 216.576 6.27539 216.194 6.76758C215.815 7.25977 215.625 7.93945 215.625 8.80664ZM227.947 8.80664C227.947 9.29883 227.887 9.74805 227.766 10.1543C227.645 10.5566 227.465 10.9043 227.227 11.1973C226.988 11.4902 226.691 11.7168 226.336 11.877C225.984 12.0371 225.574 12.1172 225.106 12.1172C224.66 12.1172 224.264 12.0391 223.916 11.8828C223.568 11.7227 223.274 11.4961 223.031 11.2031C222.793 10.9102 222.611 10.5625 222.486 10.1602C222.361 9.75391 222.299 9.30273 222.299 8.80664C222.299 8.12305 222.412 7.53516 222.639 7.04297C222.869 6.54688 223.197 6.16797 223.623 5.90625C224.053 5.64062 224.566 5.50781 225.164 5.50781C225.781 5.50781 226.295 5.64844 226.705 5.92969C227.119 6.20703 227.43 6.59375 227.637 7.08984C227.844 7.58594 227.947 8.1582 227.947 8.80664ZM222.908 8.80664C222.908 9.36523 222.988 9.85352 223.149 10.2715C223.309 10.6895 223.551 11.0156 223.875 11.25C224.203 11.4844 224.617 11.6016 225.117 11.6016C225.629 11.6016 226.049 11.4844 226.377 11.25C226.705 11.0156 226.947 10.6875 227.104 10.2656C227.26 9.84375 227.338 9.35742 227.338 8.80664C227.338 8.27148 227.264 7.79492 227.115 7.37695C226.967 6.95898 226.732 6.63086 226.412 6.39258C226.092 6.15039 225.674 6.0293 225.158 6.0293C224.42 6.0293 223.859 6.27539 223.477 6.76758C223.098 7.25977 222.908 7.93945 222.908 8.80664ZM236.519 5.50781C237.133 5.50781 237.617 5.68555 237.972 6.04102C238.328 6.39648 238.506 6.95703 238.506 7.72266V12H237.926V7.74609C237.926 7.15625 237.791 6.72266 237.521 6.44531C237.252 6.16797 236.896 6.0293 236.455 6.0293C235.849 6.0293 235.375 6.20703 235.031 6.5625C234.691 6.91406 234.521 7.46875 234.521 8.22656V12H233.935V7.74609C233.935 7.35156 233.873 7.0293 233.748 6.7793C233.627 6.52539 233.457 6.33789 233.238 6.2168C233.019 6.0918 232.762 6.0293 232.465 6.0293C232.07 6.0293 231.728 6.11133 231.439 6.27539C231.15 6.43555 230.928 6.68555 230.771 7.02539C230.615 7.36133 230.537 7.78906 230.537 8.30859V12H229.945V5.63086H230.426L230.514 6.67383H230.549C230.654 6.4668 230.795 6.27539 230.971 6.09961C231.146 5.92383 231.363 5.78125 231.621 5.67188C231.883 5.5625 232.189 5.50781 232.541 5.50781C232.998 5.50781 233.385 5.61133 233.701 5.81836C234.021 6.02148 234.244 6.32422 234.369 6.72656H234.41C234.582 6.34375 234.847 6.04492 235.207 5.83008C235.57 5.61523 236.008 5.50781 236.519 5.50781Z" fill="#727272"/>
<path d="M167.173 5.03894H153.198V2.34779C153.198 1.83428 153.615 1.41656 154.129 1.41656C154.52 1.41656 154.872 1.66386 155.005 2.03206L155.073 2.21979L154.682 2.36074C154.536 2.41304 154.42 2.51883 154.355 2.65861C154.289 2.79853 154.282 2.9556 154.334 3.10062L154.554 3.71002C154.573 3.76204 154.611 3.80447 154.661 3.82801C154.689 3.84109 154.719 3.84777 154.75 3.84777C154.774 3.84777 154.798 3.8437 154.82 3.83542L156.69 3.16107C156.742 3.14233 156.785 3.10368 156.808 3.05369C156.832 3.00386 156.834 2.94646 156.815 2.89444L156.596 2.28504C156.543 2.13974 156.437 2.02379 156.298 1.95811C156.158 1.89215 156.001 1.88488 155.856 1.93762L155.465 2.07871L155.397 1.89084C155.205 1.35802 154.695 1 154.129 1C153.385 1 152.781 1.6046 152.781 2.34781V5.03895H152.544C152.216 5.03895 151.908 5.16624 151.676 5.39858C151.445 5.63251 151.318 5.94013 151.318 6.26501C151.318 6.57073 151.433 6.86147 151.632 7.08335C151.631 7.08727 151.629 7.09047 151.629 7.09439C151.629 7.156 151.657 7.20991 151.7 7.24812V8.07896C151.7 9.53795 152.683 10.7857 154.072 11.1396L153.762 11.8659C153.686 12.0429 153.683 12.2384 153.755 12.4162C153.826 12.5936 153.963 12.7325 154.139 12.8069C154.233 12.8466 154.327 12.8668 154.419 12.8668C154.708 12.8668 154.967 12.6949 155.079 12.4296L155.555 11.3123C155.565 11.2885 155.57 11.2647 155.578 11.241H164.14C164.147 11.2648 164.152 11.2887 164.163 11.3126L164.638 12.429C164.75 12.6949 165.009 12.8668 165.298 12.8668C165.39 12.8668 165.484 12.8466 165.577 12.8072C165.754 12.7326 165.891 12.5936 165.963 12.4162C166.034 12.2384 166.031 12.0429 165.955 11.8668L165.645 11.1396C167.034 10.7852 168.018 9.53764 168.018 8.0788V7.15437C168.025 7.14711 168.033 7.13955 168.04 7.13199C168.041 7.13156 168.041 7.13141 168.041 7.13098C168.272 6.89718 168.399 6.58957 168.399 6.26499C168.399 5.58889 167.849 5.03893 167.173 5.03893L167.173 5.03894ZM155.997 2.32934C156.015 2.3228 156.033 2.31975 156.052 2.31975C156.075 2.31975 156.098 2.32484 156.12 2.33501C156.159 2.35346 156.189 2.38587 156.204 2.42655L156.353 2.83992L154.875 3.37288L154.726 2.95936C154.711 2.91882 154.713 2.87494 154.731 2.83615C154.75 2.79706 154.782 2.76756 154.823 2.75289L155.41 2.54118H155.41C155.41 2.54118 155.41 2.54118 155.41 2.54104L155.997 2.32934ZM165.968 5.45551V8.43114H163.724V5.45551H165.968ZM151.971 5.69206C152.124 5.5395 152.327 5.45551 152.544 5.45551H163.308V6.88601H152.027C151.843 6.73446 151.735 6.50734 151.735 6.265C151.735 6.05039 151.819 5.84653 151.971 5.69209L151.971 5.69206ZM154.695 12.2671C154.649 12.3784 154.54 12.4501 154.419 12.4501C154.383 12.4501 154.345 12.4414 154.302 12.4231C154.228 12.392 154.171 12.3345 154.141 12.2608C154.111 12.187 154.113 12.1053 154.145 12.0304L154.491 11.2187C154.505 11.2203 154.519 11.2197 154.532 11.2212C154.643 11.2331 154.754 11.2411 154.864 11.2411H155.132L154.695 12.2671ZM165.576 12.2608C165.546 12.3345 165.489 12.392 165.415 12.4231C165.415 12.4233 165.415 12.4233 165.415 12.4233C165.372 12.4414 165.334 12.4501 165.298 12.4501C165.177 12.4501 165.068 12.3784 165.021 12.2665L164.585 11.2411H164.853C164.963 11.2411 165.074 11.233 165.185 11.2212C165.198 11.2197 165.212 11.2203 165.225 11.2187L165.572 12.0313C165.604 12.1054 165.605 12.1869 165.576 12.2608L165.576 12.2608ZM167.745 6.83819C167.712 6.87074 167.677 6.89907 167.641 6.92566C167.568 6.97855 167.537 7.07271 167.565 7.15858C167.573 7.18299 167.585 7.20537 167.601 7.22469V8.07892C167.601 9.42208 166.641 10.5598 165.318 10.7843C165.163 10.8109 165.007 10.8245 164.853 10.8245H164.311L155.406 10.8244H154.864C154.71 10.8244 154.553 10.8107 154.398 10.7838C153.075 10.5596 152.116 9.42194 152.116 8.07875V7.30255H163.308V8.63946C163.308 8.75454 163.401 8.84782 163.516 8.84782H166.177C166.292 8.84782 166.385 8.75469 166.385 8.63946L166.385 5.45545H167.173C167.619 5.45545 167.982 5.81856 167.982 6.26494C167.982 6.47911 167.898 6.68266 167.745 6.83815L167.745 6.83819Z" fill="black"/>
<path d="M104.468 12H99.1064V11.4961L101.626 8.87109C102.028 8.45312 102.366 8.07617 102.64 7.74023C102.917 7.40039 103.126 7.06055 103.267 6.7207C103.411 6.38086 103.483 6 103.483 5.57812C103.483 5.02734 103.321 4.59961 102.997 4.29492C102.677 3.99023 102.241 3.83789 101.69 3.83789C101.319 3.83789 100.962 3.9043 100.618 4.03711C100.278 4.16992 99.9463 4.36523 99.6221 4.62305L99.2939 4.20703C99.5322 4.01172 99.7822 3.84766 100.044 3.71484C100.31 3.58203 100.581 3.48242 100.858 3.41602C101.136 3.3457 101.413 3.31055 101.69 3.31055C102.179 3.31055 102.601 3.4043 102.956 3.5918C103.315 3.77539 103.595 4.03516 103.794 4.37109C103.993 4.70703 104.093 5.10156 104.093 5.55469C104.093 6.02344 104.011 6.44922 103.847 6.83203C103.687 7.21094 103.458 7.58203 103.161 7.94531C102.864 8.30859 102.513 8.69922 102.106 9.11719L99.874 11.4258V11.4492H104.468V12ZM110.104 3.43359H112.454C113.512 3.43359 114.286 3.59961 114.774 3.93164C115.266 4.26367 115.512 4.79297 115.512 5.51953C115.512 5.84766 115.448 6.14648 115.319 6.41602C115.194 6.68555 115.006 6.91211 114.756 7.0957C114.51 7.27539 114.206 7.39844 113.842 7.46484V7.50586C114.276 7.57227 114.633 7.69336 114.915 7.86914C115.2 8.04102 115.411 8.26953 115.547 8.55469C115.688 8.83594 115.758 9.17188 115.758 9.5625C115.758 10.125 115.629 10.5859 115.372 10.9453C115.118 11.3047 114.764 11.5703 114.311 11.7422C113.858 11.9141 113.334 12 112.741 12H110.104V3.43359ZM110.708 7.24219H112.606C113.411 7.24219 113.993 7.10156 114.352 6.82031C114.711 6.53906 114.891 6.12305 114.891 5.57227C114.891 5.00195 114.698 4.5918 114.311 4.3418C113.924 4.0918 113.305 3.9668 112.454 3.9668H110.708V7.24219ZM110.708 7.76953V11.4668H112.723C113.516 11.4668 114.114 11.3066 114.516 10.9863C114.918 10.6621 115.12 10.1797 115.12 9.53906C115.12 9.11719 115.026 8.77734 114.838 8.51953C114.651 8.25781 114.37 8.06836 113.995 7.95117C113.624 7.83008 113.161 7.76953 112.606 7.76953H110.708ZM120.129 5.50781C120.672 5.50781 121.123 5.63477 121.483 5.88867C121.846 6.14258 122.116 6.49023 122.291 6.93164C122.471 7.37305 122.561 7.87891 122.561 8.44922V8.87695H117.961C117.961 9.75195 118.162 10.4238 118.565 10.8926C118.971 11.3613 119.551 11.5957 120.305 11.5957C120.699 11.5957 121.041 11.5645 121.33 11.502C121.623 11.4355 121.948 11.3242 122.303 11.168V11.7129C121.991 11.8535 121.678 11.9551 121.366 12.0176C121.053 12.084 120.694 12.1172 120.287 12.1172C119.643 12.1172 119.102 11.9844 118.664 11.7188C118.231 11.4492 117.903 11.0703 117.68 10.582C117.461 10.0938 117.352 9.52344 117.352 8.87109C117.352 8.23438 117.457 7.66211 117.668 7.1543C117.883 6.64648 118.196 6.24609 118.606 5.95312C119.02 5.65625 119.528 5.50781 120.129 5.50781ZM120.123 6.01758C119.514 6.01758 119.02 6.2207 118.641 6.62695C118.266 7.0293 118.045 7.61133 117.979 8.37305H121.946C121.946 7.9082 121.879 7.49805 121.746 7.14258C121.614 6.78711 121.412 6.51172 121.143 6.31641C120.877 6.11719 120.537 6.01758 120.123 6.01758ZM126.861 12.1172C125.99 12.1172 125.326 11.8438 124.869 11.2969C124.416 10.7461 124.189 9.94531 124.189 8.89453C124.189 7.79297 124.43 6.95312 124.91 6.375C125.391 5.79688 126.061 5.50781 126.92 5.50781C127.287 5.50781 127.606 5.56445 127.875 5.67773C128.148 5.79102 128.377 5.94531 128.561 6.14062C128.748 6.33203 128.893 6.55078 128.994 6.79688H129.041C129.025 6.58984 129.014 6.36719 129.006 6.12891C128.998 5.89062 128.994 5.67188 128.994 5.47266V2.88281H129.586V12H129.106L129.029 10.834H128.994C128.889 11.0684 128.742 11.2832 128.555 11.4785C128.371 11.6738 128.141 11.8301 127.863 11.9473C127.586 12.0605 127.252 12.1172 126.861 12.1172ZM126.926 11.6016C127.676 11.6016 128.209 11.3691 128.525 10.9043C128.842 10.4355 129 9.76758 129 8.90039V8.80664C129 7.9082 128.842 7.2207 128.525 6.74414C128.209 6.26367 127.693 6.02344 126.979 6.02344C126.272 6.02344 125.731 6.26953 125.356 6.76172C124.984 7.25391 124.799 7.96875 124.799 8.90625C124.799 9.78906 124.973 10.459 125.32 10.916C125.672 11.373 126.207 11.6016 126.926 11.6016Z" fill="#727272"/>
<path d="M91.3829 3.60001H83.5831C83.4618 3.60001 83.3665 3.69533 83.3665 3.81662V7.49991H77.7332V1.21661C77.7332 1.09532 77.6379 1 77.5166 1H76.2166C76.0953 1 76 1.09532 76 1.21661V12.4829C76 12.6042 76.0953 12.6995 76.2166 12.6995H77.5166C77.6379 12.6995 77.7332 12.6042 77.7332 12.4829V10.0996H92.0328V12.483C92.0328 12.6043 92.1282 12.6996 92.2495 12.6996H93.5494C93.6707 12.6996 93.766 12.6043 93.766 12.483L93.7662 5.98319C93.7662 4.67014 92.6959 3.59986 91.3829 3.59986L91.3829 3.60001ZM83.3666 9.6664H77.5167C77.3954 9.6664 77.3001 9.76172 77.3001 9.88302V12.2663H76.4335V1.43315H77.3001L77.3 7.71645C77.3 7.83774 77.3953 7.93306 77.5166 7.93306H83.3664L83.3666 9.6664ZM93.3329 12.2663H92.4663V9.88316C92.4663 9.76187 92.371 9.66655 92.2497 9.66655L83.7999 9.66641V4.03309L91.3832 4.03323C92.4578 4.03323 93.3331 4.90852 93.3331 5.98319L93.3329 12.2663Z" fill="black"/>
<path d="M78.5999 4.68347C78.5999 5.75814 79.4751 6.63343 80.5498 6.63343C81.6245 6.63343 82.4998 5.75814 82.4998 4.68347C82.4998 3.60881 81.6245 2.73352 80.5498 2.73352C79.4751 2.73352 78.5999 3.60881 78.5999 4.68347ZM82.0665 4.68347C82.0665 5.51976 81.3862 6.20005 80.55 6.20005C79.7137 6.20005 79.0334 5.51976 79.0334 4.68347C79.0334 3.84718 79.7137 3.16689 80.55 3.16689C81.3862 3.16675 82.0665 3.84704 82.0665 4.68347Z" fill="black"/>
<path d="M19.293 6.83789C19.8711 6.83789 20.3691 6.93555 20.7871 7.13086C21.209 7.32617 21.5332 7.61133 21.7598 7.98633C21.9902 8.35742 22.1055 8.8125 22.1055 9.35156C22.1055 9.92188 21.9785 10.4141 21.7246 10.8281C21.4707 11.2422 21.1113 11.5605 20.6465 11.7832C20.1855 12.0059 19.6406 12.1172 19.0117 12.1172C18.5586 12.1172 18.1465 12.0742 17.7754 11.9883C17.4082 11.8984 17.0977 11.7793 16.8438 11.6309V11.0332C17.1172 11.1973 17.4434 11.332 17.8223 11.4375C18.2051 11.543 18.6035 11.5957 19.0176 11.5957C19.5176 11.5957 19.9531 11.5117 20.3242 11.3438C20.6953 11.1719 20.9824 10.9219 21.1855 10.5938C21.3926 10.2656 21.4961 9.86328 21.4961 9.38672C21.4961 8.75 21.3027 8.25391 20.916 7.89844C20.5293 7.53906 19.9453 7.35938 19.1641 7.35938C18.8438 7.35938 18.5371 7.38281 18.2441 7.42969C17.9551 7.47266 17.6855 7.52734 17.4355 7.59375L17.0957 7.35352L17.4414 3.43359H21.5547V3.98438H17.9512L17.6875 7.03711C17.8633 6.99414 18.084 6.95117 18.3496 6.9082C18.6191 6.86133 18.9336 6.83789 19.293 6.83789ZM29.1189 12H23.7576V11.4961L26.2771 8.87109C26.6795 8.45312 27.0173 8.07617 27.2908 7.74023C27.5681 7.40039 27.7771 7.06055 27.9177 6.7207C28.0623 6.38086 28.1345 6 28.1345 5.57812C28.1345 5.02734 27.9724 4.59961 27.6482 4.29492C27.3279 3.99023 26.8923 3.83789 26.3416 3.83789C25.9705 3.83789 25.613 3.9043 25.2693 4.03711C24.9295 4.16992 24.5974 4.36523 24.2732 4.62305L23.9451 4.20703C24.1834 4.01172 24.4334 3.84766 24.6951 3.71484C24.9607 3.58203 25.2322 3.48242 25.5095 3.41602C25.7869 3.3457 26.0642 3.31055 26.3416 3.31055C26.8298 3.31055 27.2517 3.4043 27.6072 3.5918C27.9666 3.77539 28.2459 4.03516 28.4451 4.37109C28.6443 4.70703 28.7439 5.10156 28.7439 5.55469C28.7439 6.02344 28.6619 6.44922 28.4978 6.83203C28.3377 7.21094 28.1091 7.58203 27.8123 7.94531C27.5154 8.30859 27.1638 8.69922 26.7576 9.11719L24.5252 11.4258V11.4492H29.1189V12ZM38.5872 10.3301C38.5872 10.709 38.4915 11.0332 38.3001 11.3027C38.1126 11.5684 37.8372 11.7715 37.4739 11.9121C37.1106 12.0488 36.6634 12.1172 36.1321 12.1172C35.6907 12.1172 35.2962 12.0781 34.9485 12C34.6009 11.9219 34.3098 11.8262 34.0755 11.7129V11.127C34.3684 11.2715 34.6927 11.3887 35.0481 11.4785C35.4036 11.5684 35.7688 11.6133 36.1438 11.6133C36.8001 11.6133 37.2727 11.502 37.5618 11.2793C37.8509 11.0566 37.9954 10.752 37.9954 10.3652C37.9954 10.1113 37.9231 9.90234 37.7786 9.73828C37.638 9.57031 37.4348 9.42578 37.1692 9.30469C36.9036 9.18359 36.5833 9.06055 36.2083 8.93555C35.8177 8.80273 35.47 8.67188 35.1653 8.54297C34.8645 8.41016 34.6282 8.23633 34.4563 8.02148C34.2845 7.80273 34.1985 7.50586 34.1985 7.13086C34.1985 6.61914 34.4036 6.2207 34.8137 5.93555C35.2239 5.65039 35.7747 5.50781 36.4661 5.50781C36.8489 5.50781 37.2044 5.54492 37.5325 5.61914C37.8645 5.68945 38.1653 5.78125 38.4348 5.89453L38.2239 6.39844C37.9817 6.28516 37.7024 6.19336 37.386 6.12305C37.0696 6.05273 36.7532 6.01758 36.4368 6.01758C35.9173 6.01758 35.511 6.10938 35.218 6.29297C34.9251 6.47656 34.7786 6.74609 34.7786 7.10156C34.7786 7.375 34.8489 7.58984 34.9895 7.74609C35.1302 7.89844 35.3313 8.02734 35.593 8.13281C35.8548 8.23438 36.1653 8.34766 36.5247 8.47266C36.8958 8.60156 37.2376 8.73633 37.5501 8.87695C37.8665 9.01758 38.1184 9.19922 38.3059 9.42188C38.4934 9.64453 38.5872 9.94727 38.5872 10.3301ZM44.8506 14.8184V12.0293C44.8506 11.8535 44.8545 11.6426 44.8623 11.3965C44.8702 11.1504 44.878 10.9395 44.8858 10.7637H44.8448C44.6924 11.1543 44.4268 11.4805 44.0479 11.7422C43.669 12 43.1944 12.1289 42.6241 12.1289C41.8077 12.1289 41.1729 11.8516 40.7198 11.2969C40.2705 10.7383 40.0459 9.91602 40.0459 8.83008C40.0459 8.17383 40.1455 7.59766 40.3448 7.10156C40.5479 6.60156 40.8506 6.21094 41.253 5.92969C41.6592 5.64844 42.1612 5.50781 42.7588 5.50781C43.3057 5.50781 43.7491 5.62891 44.0889 5.87109C44.4327 6.10938 44.6827 6.39844 44.8389 6.73828H44.8741L44.9678 5.63086H45.4424V14.8184H44.8506ZM42.7002 11.6133C43.2041 11.6133 43.6123 11.5078 43.9248 11.2969C44.2412 11.082 44.4737 10.7734 44.6221 10.3711C44.7745 9.96484 44.8526 9.47266 44.8565 8.89453V8.74219C44.8565 7.85156 44.6944 7.17578 44.3702 6.71484C44.0459 6.25391 43.5264 6.02344 42.8116 6.02344C42.1006 6.02344 41.5635 6.27148 41.2002 6.76758C40.837 7.26367 40.6553 7.95508 40.6553 8.8418C40.6553 9.74023 40.8252 10.4277 41.1651 10.9043C41.5049 11.377 42.0166 11.6133 42.7002 11.6133ZM54.3953 5.50781C55.0086 5.50781 55.493 5.68555 55.8484 6.04102C56.2039 6.39648 56.3816 6.95703 56.3816 7.72266V12H55.8016V7.74609C55.8016 7.15625 55.6668 6.72266 55.3973 6.44531C55.1277 6.16797 54.7723 6.0293 54.3309 6.0293C53.7254 6.0293 53.2508 6.20703 52.907 6.5625C52.5672 6.91406 52.3973 7.46875 52.3973 8.22656V12H51.8113V7.74609C51.8113 7.35156 51.7488 7.0293 51.6238 6.7793C51.5027 6.52539 51.3328 6.33789 51.1141 6.2168C50.8953 6.0918 50.6375 6.0293 50.3406 6.0293C49.9461 6.0293 49.6043 6.11133 49.3152 6.27539C49.0262 6.43555 48.8035 6.68555 48.6473 7.02539C48.491 7.36133 48.4129 7.78906 48.4129 8.30859V12H47.8211V5.63086H48.3016L48.3895 6.67383H48.4246C48.5301 6.4668 48.6707 6.27539 48.8465 6.09961C49.0223 5.92383 49.2391 5.78125 49.4969 5.67188C49.7586 5.5625 50.0652 5.50781 50.4168 5.50781C50.8738 5.50781 51.2605 5.61133 51.577 5.81836C51.8973 6.02148 52.1199 6.32422 52.2449 6.72656H52.2859C52.4578 6.34375 52.7234 6.04492 53.0828 5.83008C53.4461 5.61523 53.8836 5.50781 54.3953 5.50781Z" fill="#727272"/>
<path d="M10.3125 1H0.9375C0.420536 1 0 1.42054 0 1.9375V12.0625C0 12.5795 0.420536 13 0.9375 13H10.3125C10.8295 13 11.25 12.5795 11.25 12.0625V1.9375C11.25 1.42054 10.8295 1 10.3125 1ZM10.875 12.0625C10.875 12.3726 10.6226 12.625 10.3125 12.625H0.9375C0.627364 12.625 0.375 12.3726 0.375 12.0625V1.9375C0.375 1.62736 0.627364 1.375 0.9375 1.375H10.3125C10.6226 1.375 10.875 1.62736 10.875 1.9375V12.0625Z" fill="black"/>
<path d="M10.0092 2.1394C9.98626 2.12986 9.9619 2.125 9.93754 2.125H8.06254C7.95908 2.125 7.87504 2.20879 7.87504 2.3125C7.87504 2.41621 7.95908 2.5 8.06254 2.5H9.48494L6.80487 5.17986C6.73155 5.25318 6.73155 5.37171 6.80487 5.44495C6.84145 5.48153 6.8895 5.49994 6.93746 5.49994C6.98543 5.49994 7.03347 5.48153 7.07005 5.44503L9.74991 2.76496V4.18737C9.74991 4.29108 9.83395 4.37487 9.93741 4.37487C10.0409 4.37487 10.1249 4.29108 10.1249 4.18737V2.31237C10.1249 2.28801 10.1199 2.26365 10.1105 2.24072C10.0915 2.19485 10.0549 2.15827 10.0091 2.13927L10.0092 2.1394Z" fill="black"/>
<path d="M4.17986 8.55485L1.5 11.2349V9.81252C1.5 9.70881 1.41596 9.62502 1.3125 9.62502C1.20904 9.62502 1.125 9.70881 1.125 9.81252V11.6875C1.125 11.7119 1.13002 11.7362 1.1394 11.7592C1.15831 11.8051 1.19489 11.8417 1.24085 11.8606C1.26378 11.87 1.28814 11.875 1.3125 11.875H3.1875C3.29096 11.875 3.375 11.7912 3.375 11.6875C3.375 11.5838 3.29096 11.5 3.1875 11.5H1.76509L4.44495 8.82016C4.51828 8.74683 4.51828 8.62831 4.44495 8.55507C4.37171 8.48166 4.25318 8.48166 4.17986 8.55498L4.17986 8.55485Z" fill="black"/>
</svg>
