<svg width="81" height="20" viewBox="0 0 81 20" fill="none" xmlns="http://www.w3.org/2000/svg">
<path d="M15.0752 19H12.041V10.6211H3.48438V19H0.4375V0.439453H3.48438V8.03125H12.041V0.439453H15.0752V19ZM36.4668 9.69434C36.4668 11.1247 36.2848 12.4281 35.9209 13.6045C35.5654 14.7725 35.028 15.7796 34.3086 16.626C33.5892 17.4639 32.6878 18.1113 31.6045 18.5684C30.5212 19.0254 29.2516 19.2539 27.7959 19.2539C26.3148 19.2539 25.0283 19.0254 23.9365 18.5684C22.8532 18.1113 21.9518 17.4596 21.2324 16.6133C20.5215 15.7669 19.9883 14.7555 19.6328 13.5791C19.2773 12.4027 19.0996 11.0993 19.0996 9.66895C19.0996 7.75618 19.4128 6.08887 20.0391 4.66699C20.6738 3.23665 21.6344 2.12793 22.9209 1.34082C24.2158 0.545247 25.8493 0.147461 27.8213 0.147461C29.751 0.147461 31.3548 0.541016 32.6328 1.32812C33.9108 2.11523 34.8672 3.22396 35.502 4.6543C36.1452 6.07617 36.4668 7.75618 36.4668 9.69434ZM22.2988 9.69434C22.2988 11.1247 22.4935 12.3646 22.8828 13.4141C23.2721 14.4551 23.8688 15.2591 24.6729 15.8262C25.4854 16.3848 26.5264 16.6641 27.7959 16.6641C29.0739 16.6641 30.1149 16.3848 30.9189 15.8262C31.723 15.2591 32.3154 14.4551 32.6963 13.4141C33.0771 12.3646 33.2676 11.1247 33.2676 9.69434C33.2676 7.51921 32.8317 5.81803 31.96 4.59082C31.0967 3.35514 29.7171 2.7373 27.8213 2.7373C26.5518 2.7373 25.5065 3.0166 24.6855 3.5752C23.873 4.13379 23.2721 4.93359 22.8828 5.97461C22.4935 7.00716 22.2988 8.24707 22.2988 9.69434ZM46.8896 19H43.8301V3.0293H38.3965V0.439453H52.3105V3.0293H46.8896V19ZM65.666 19H55.1543V0.439453H65.666V3.00391H58.2012V8.04395H65.1963V10.5957H58.2012V16.4229H65.666V19ZM69.6777 19V0.439453H72.7246V16.4102H80.6084V19H69.6777Z" fill="#597193"/>
</svg>
