<svg width="105" height="18" viewBox="0 0 105 18" fill="none" xmlns="http://www.w3.org/2000/svg">
<rect width="105" height="18" rx="9" fill="#C9D6E9"/>
<path d="M23.2363 14L20.3594 6.41797H20.3125C20.3281 6.57812 20.3418 6.77344 20.3535 7.00391C20.3652 7.23438 20.375 7.48633 20.3828 7.75977C20.3906 8.0293 20.3945 8.30469 20.3945 8.58594V14H19.4688V5.43359H20.9453L23.6582 12.5586H23.6992L26.4531 5.43359H27.918V14H26.9336V8.51562C26.9336 8.26172 26.9375 8.00781 26.9453 7.75391C26.9531 7.49609 26.9629 7.25391 26.9746 7.02734C26.9863 6.79688 26.998 6.59766 27.0098 6.42969H26.9629L24.0508 14H23.2363ZM32.5176 7.47266C33.2832 7.47266 33.8516 7.64453 34.2227 7.98828C34.5938 8.33203 34.7793 8.88086 34.7793 9.63477V14H34.0703L33.8828 13.0508H33.8359C33.6562 13.2852 33.4688 13.4824 33.2734 13.6426C33.0781 13.7988 32.8516 13.918 32.5938 14C32.3398 14.0781 32.0273 14.1172 31.6562 14.1172C31.2656 14.1172 30.918 14.0488 30.6133 13.9121C30.3125 13.7754 30.0742 13.5684 29.8984 13.291C29.7266 13.0137 29.6406 12.6621 29.6406 12.2363C29.6406 11.5957 29.8945 11.1035 30.4023 10.7598C30.9102 10.416 31.6836 10.2285 32.7227 10.1973L33.8301 10.1504V9.75781C33.8301 9.20312 33.7109 8.81445 33.4727 8.5918C33.2344 8.36914 32.8984 8.25781 32.4648 8.25781C32.1289 8.25781 31.8086 8.30664 31.5039 8.4043C31.1992 8.50195 30.9102 8.61719 30.6367 8.75L30.3379 8.01172C30.627 7.86328 30.959 7.73633 31.334 7.63086C31.709 7.52539 32.1035 7.47266 32.5176 7.47266ZM33.8184 10.8359L32.8398 10.877C32.0391 10.9082 31.4746 11.0391 31.1465 11.2695C30.8184 11.5 30.6543 11.8262 30.6543 12.248C30.6543 12.6152 30.7656 12.8867 30.9883 13.0625C31.2109 13.2383 31.5059 13.3262 31.873 13.3262C32.4434 13.3262 32.9102 13.168 33.2734 12.8516C33.6367 12.5352 33.8184 12.0605 33.8184 11.4277V10.8359ZM39.7012 7.46094C39.8301 7.46094 39.9648 7.46875 40.1055 7.48438C40.2461 7.49609 40.3711 7.51367 40.4805 7.53711L40.3574 8.43945C40.252 8.41211 40.1348 8.39062 40.0059 8.375C39.877 8.35938 39.7559 8.35156 39.6426 8.35156C39.3848 8.35156 39.1406 8.4043 38.9102 8.50977C38.6836 8.61133 38.4844 8.75977 38.3125 8.95508C38.1406 9.14648 38.0059 9.37891 37.9082 9.65234C37.8105 9.92188 37.7617 10.2227 37.7617 10.5547V14H36.7832V7.57812H37.5918L37.6973 8.76172H37.7383C37.8711 8.52344 38.0312 8.30664 38.2188 8.11133C38.4062 7.91211 38.623 7.75391 38.8691 7.63672C39.1191 7.51953 39.3965 7.46094 39.7012 7.46094ZM42.6602 4.88281V9.61719C42.6602 9.77344 42.6543 9.96484 42.6426 10.1914C42.6309 10.4141 42.6211 10.6113 42.6133 10.7832H42.6543C42.7363 10.6816 42.8555 10.5312 43.0117 10.332C43.1719 10.1328 43.3066 9.97266 43.416 9.85156L45.5488 7.57812H46.6914L44.1074 10.3203L46.8789 14H45.707L43.4395 10.959L42.6602 11.6738V14H41.6934V4.88281H42.6602ZM50.4707 7.46094C51.0176 7.46094 51.4863 7.58203 51.877 7.82422C52.2676 8.06641 52.5664 8.40625 52.7734 8.84375C52.9805 9.27734 53.084 9.78516 53.084 10.3672V10.9707H48.6484C48.6602 11.7246 48.8477 12.2988 49.2109 12.6934C49.5742 13.0879 50.0859 13.2852 50.7461 13.2852C51.1523 13.2852 51.5117 13.248 51.8242 13.1738C52.1367 13.0996 52.4609 12.9902 52.7969 12.8457V13.7012C52.4727 13.8457 52.1504 13.9512 51.8301 14.0176C51.5137 14.084 51.1387 14.1172 50.7051 14.1172C50.0879 14.1172 49.5488 13.9922 49.0879 13.7422C48.6309 13.4883 48.2754 13.1172 48.0215 12.6289C47.7676 12.1406 47.6406 11.543 47.6406 10.8359C47.6406 10.1445 47.7559 9.54688 47.9863 9.04297C48.2207 8.53516 48.5488 8.14453 48.9707 7.87109C49.3965 7.59766 49.8965 7.46094 50.4707 7.46094ZM50.459 8.25781C49.9395 8.25781 49.5254 8.42773 49.2168 8.76758C48.9082 9.10742 48.7246 9.58203 48.666 10.1914H52.0645C52.0605 9.80859 52 9.47266 51.8828 9.18359C51.7695 8.89062 51.5957 8.66406 51.3613 8.50391C51.127 8.33984 50.8262 8.25781 50.459 8.25781ZM56.8105 13.3203C56.9707 13.3203 57.1348 13.3066 57.3027 13.2793C57.4707 13.252 57.6074 13.2188 57.7129 13.1797V13.9355C57.5996 13.9863 57.4414 14.0293 57.2383 14.0645C57.0391 14.0996 56.8438 14.1172 56.6523 14.1172C56.3125 14.1172 56.0039 14.0586 55.7266 13.9414C55.4492 13.8203 55.2266 13.6172 55.0586 13.332C54.8945 13.0469 54.8125 12.6523 54.8125 12.1484V8.33984H53.8984V7.86523L54.8184 7.48438L55.2051 6.08984H55.791V7.57812H57.6719V8.33984H55.791V12.1191C55.791 12.5215 55.8828 12.8223 56.0664 13.0215C56.2539 13.2207 56.502 13.3203 56.8105 13.3203ZM67.1113 11.7207C67.1113 12.2285 66.9844 12.6621 66.7305 13.0215C66.4805 13.377 66.1289 13.6484 65.6758 13.8359C65.2227 14.0234 64.6895 14.1172 64.0762 14.1172C63.752 14.1172 63.4453 14.1016 63.1562 14.0703C62.8672 14.0391 62.6016 13.9941 62.3594 13.9355C62.1172 13.877 61.9043 13.8047 61.7207 13.7188V12.7637C62.0137 12.8848 62.3711 12.998 62.793 13.1035C63.2148 13.2051 63.6562 13.2559 64.1172 13.2559C64.5469 13.2559 64.9102 13.1992 65.207 13.0859C65.5039 12.9688 65.7285 12.8027 65.8809 12.5879C66.0371 12.3691 66.1152 12.1074 66.1152 11.8027C66.1152 11.5098 66.0508 11.2656 65.9219 11.0703C65.793 10.8711 65.5781 10.6914 65.2773 10.5312C64.9805 10.3672 64.5742 10.1934 64.0586 10.0098C63.6953 9.88086 63.375 9.74023 63.0977 9.58789C62.8203 9.43164 62.5879 9.25586 62.4004 9.06055C62.2129 8.86523 62.0703 8.63867 61.9727 8.38086C61.8789 8.12305 61.832 7.82812 61.832 7.49609C61.832 7.03906 61.9473 6.64844 62.1777 6.32422C62.4121 5.99609 62.7344 5.74609 63.1445 5.57422C63.5586 5.39844 64.0332 5.31055 64.5684 5.31055C65.0254 5.31055 65.4473 5.35352 65.834 5.43945C66.2246 5.52539 66.582 5.64062 66.9062 5.78516L66.5957 6.64062C66.2871 6.51172 65.959 6.4043 65.6113 6.31836C65.2676 6.23242 64.9121 6.18945 64.5449 6.18945C64.1777 6.18945 63.8672 6.24414 63.6133 6.35352C63.3633 6.45898 63.1719 6.60938 63.0391 6.80469C62.9062 7 62.8398 7.23242 62.8398 7.50195C62.8398 7.80273 62.9023 8.05273 63.0273 8.25195C63.1562 8.45117 63.3594 8.62891 63.6367 8.78516C63.918 8.9375 64.2891 9.09766 64.75 9.26562C65.2539 9.44922 65.6816 9.64453 66.0332 9.85156C66.3848 10.0547 66.6523 10.3047 66.8359 10.6016C67.0195 10.8945 67.1113 11.2676 67.1113 11.7207ZM70.791 13.3203C70.9512 13.3203 71.1152 13.3066 71.2832 13.2793C71.4512 13.252 71.5879 13.2188 71.6934 13.1797V13.9355C71.5801 13.9863 71.4219 14.0293 71.2188 14.0645C71.0195 14.0996 70.8242 14.1172 70.6328 14.1172C70.293 14.1172 69.9844 14.0586 69.707 13.9414C69.4297 13.8203 69.207 13.6172 69.0391 13.332C68.875 13.0469 68.793 12.6523 68.793 12.1484V8.33984H67.8789V7.86523L68.7988 7.48438L69.1855 6.08984H69.7715V7.57812H71.6523V8.33984H69.7715V12.1191C69.7715 12.5215 69.8633 12.8223 70.0469 13.0215C70.2344 13.2207 70.4824 13.3203 70.791 13.3203ZM75.3965 7.47266C76.1621 7.47266 76.7305 7.64453 77.1016 7.98828C77.4727 8.33203 77.6582 8.88086 77.6582 9.63477V14H76.9492L76.7617 13.0508H76.7148C76.5352 13.2852 76.3477 13.4824 76.1523 13.6426C75.957 13.7988 75.7305 13.918 75.4727 14C75.2188 14.0781 74.9062 14.1172 74.5352 14.1172C74.1445 14.1172 73.7969 14.0488 73.4922 13.9121C73.1914 13.7754 72.9531 13.5684 72.7773 13.291C72.6055 13.0137 72.5195 12.6621 72.5195 12.2363C72.5195 11.5957 72.7734 11.1035 73.2812 10.7598C73.7891 10.416 74.5625 10.2285 75.6016 10.1973L76.709 10.1504V9.75781C76.709 9.20312 76.5898 8.81445 76.3516 8.5918C76.1133 8.36914 75.7773 8.25781 75.3438 8.25781C75.0078 8.25781 74.6875 8.30664 74.3828 8.4043C74.0781 8.50195 73.7891 8.61719 73.5156 8.75L73.2168 8.01172C73.5059 7.86328 73.8379 7.73633 74.2129 7.63086C74.5879 7.52539 74.9824 7.47266 75.3965 7.47266ZM76.6973 10.8359L75.7188 10.877C74.918 10.9082 74.3535 11.0391 74.0254 11.2695C73.6973 11.5 73.5332 11.8262 73.5332 12.248C73.5332 12.6152 73.6445 12.8867 73.8672 13.0625C74.0898 13.2383 74.3848 13.3262 74.752 13.3262C75.3223 13.3262 75.7891 13.168 76.1523 12.8516C76.5156 12.5352 76.6973 12.0605 76.6973 11.4277V10.8359ZM81.7363 13.3203C81.8965 13.3203 82.0605 13.3066 82.2285 13.2793C82.3965 13.252 82.5332 13.2188 82.6387 13.1797V13.9355C82.5254 13.9863 82.3672 14.0293 82.1641 14.0645C81.9648 14.0996 81.7695 14.1172 81.5781 14.1172C81.2383 14.1172 80.9297 14.0586 80.6523 13.9414C80.375 13.8203 80.1523 13.6172 79.9844 13.332C79.8203 13.0469 79.7383 12.6523 79.7383 12.1484V8.33984H78.8242V7.86523L79.7441 7.48438L80.1309 6.08984H80.7168V7.57812H82.5977V8.33984H80.7168V12.1191C80.7168 12.5215 80.8086 12.8223 80.9922 13.0215C81.1797 13.2207 81.4277 13.3203 81.7363 13.3203ZM84.9121 7.57812V14H83.9395V7.57812H84.9121ZM84.4375 5.17578C84.5977 5.17578 84.7344 5.22852 84.8477 5.33398C84.9648 5.43555 85.0234 5.5957 85.0234 5.81445C85.0234 6.0293 84.9648 6.18945 84.8477 6.29492C84.7344 6.40039 84.5977 6.45312 84.4375 6.45312C84.2695 6.45312 84.1289 6.40039 84.0156 6.29492C83.9062 6.18945 83.8516 6.0293 83.8516 5.81445C83.8516 5.5957 83.9062 5.43555 84.0156 5.33398C84.1289 5.22852 84.2695 5.17578 84.4375 5.17578ZM89.5469 14.1172C88.9688 14.1172 88.459 13.998 88.0176 13.7598C87.5762 13.5215 87.2324 13.1582 86.9863 12.6699C86.7402 12.1816 86.6172 11.5664 86.6172 10.8242C86.6172 10.0469 86.7461 9.41211 87.0039 8.91992C87.2656 8.42383 87.625 8.05664 88.082 7.81836C88.5391 7.58008 89.0586 7.46094 89.6406 7.46094C89.9609 7.46094 90.2695 7.49414 90.5664 7.56055C90.8672 7.62305 91.1133 7.70312 91.3047 7.80078L91.0117 8.61523C90.8164 8.53711 90.5898 8.4668 90.332 8.4043C90.0781 8.3418 89.8398 8.31055 89.6172 8.31055C89.1719 8.31055 88.8008 8.40625 88.5039 8.59766C88.2109 8.78906 87.9902 9.07031 87.8418 9.44141C87.6973 9.8125 87.625 10.2695 87.625 10.8125C87.625 11.332 87.6953 11.7754 87.8359 12.1426C87.9805 12.5098 88.1934 12.791 88.4746 12.9863C88.7598 13.1777 89.1152 13.2734 89.541 13.2734C89.8809 13.2734 90.1875 13.2383 90.4609 13.168C90.7344 13.0938 90.9824 13.0078 91.2051 12.9102V13.7773C90.9902 13.8867 90.75 13.9707 90.4844 14.0293C90.2227 14.0879 89.9102 14.1172 89.5469 14.1172Z" fill="#4C6487"/>
<circle cx="10.5" cy="9.5" r="2.5" fill="#4C6487"/>
</svg>
