<svg width="124" height="32" viewBox="0 0 124 32" fill="none" xmlns="http://www.w3.org/2000/svg">
<path d="M58.8623 9.93604C56.8274 9.93604 55.1716 11.5943 55.1716 13.6316V18.9097C55.1716 20.9467 56.8284 22.6042 58.8638 22.6042H64.1371C66.1723 22.6042 67.8283 20.946 67.8283 18.9087V13.6301C67.8283 11.5933 66.1715 9.93604 64.1361 9.93604H58.8623ZM65.2969 11.9629C65.5764 11.9629 65.8032 12.19 65.8032 12.4697C65.8032 12.7494 65.5764 12.9764 65.2969 12.9764C65.0175 12.9764 64.7907 12.7494 64.7907 12.4697C64.7907 12.19 65.0175 11.9629 65.2969 11.9629ZM61.4999 12.9764C63.3149 12.9764 64.7907 14.4535 64.7907 16.2701C64.7907 18.0867 63.3147 19.5639 61.4999 19.5639C59.685 19.5639 58.2092 18.0865 58.2092 16.2701C58.2092 14.4538 59.685 12.9764 61.4999 12.9764ZM61.4999 13.9899C60.2416 13.9899 59.2218 15.0107 59.2218 16.2701C59.2218 17.5296 60.2416 18.5504 61.4999 18.5504C62.7583 18.5504 63.7781 17.5296 63.7781 16.2701C63.7781 15.0107 62.7583 13.9899 61.4999 13.9899Z" fill="#D23939"/>
<path d="M16.0102 8.69385C11.9778 8.69385 8.70825 11.9833 8.70825 16.0401C8.70825 19.7232 11.4052 22.7645 14.9185 23.2957V17.9869H13.1119V16.056H14.9185V14.7709C14.9185 12.6436 15.9487 11.7101 17.7062 11.7101C18.5476 11.7101 18.9933 11.7731 19.2036 11.8013V13.4867H18.005C17.2591 13.4867 16.9984 14.1988 16.9984 15.0006V16.056H19.1848L18.8885 17.9869H16.9984V23.311C20.5623 22.825 23.3121 19.7593 23.3121 16.0401C23.3121 11.9833 20.0428 8.69385 16.0102 8.69385Z" fill="#00B2FF"/>
<path d="M115.557 10.3098C114.963 10.5861 114.325 10.7703 113.652 10.8573C114.336 10.4304 114.863 9.74945 115.11 8.9449C114.47 9.33945 113.76 9.62912 113.005 9.78183C112.402 9.11038 111.542 8.69385 110.589 8.69385C108.758 8.69385 107.275 10.2388 107.275 12.1435C107.275 12.413 107.305 12.6756 107.361 12.9305C104.608 12.7852 102.166 11.4102 100.532 9.32341C100.245 9.83323 100.083 10.4304 100.083 11.0606C100.083 12.2582 100.667 13.3123 101.557 13.9335C101.014 13.916 100.502 13.7573 100.055 13.5027C100.055 13.5131 100.055 13.5286 100.055 13.5431C100.055 15.2167 101.197 16.6101 102.712 16.9274C102.435 17.007 102.142 17.0513 101.841 17.0513C101.627 17.0513 101.418 17.0258 101.216 16.9877C101.638 18.3553 102.862 19.355 104.311 19.3844C103.177 20.3081 101.749 20.8613 100.195 20.8613C99.9271 20.8613 99.6649 20.8453 99.4055 20.8123C100.873 21.7883 102.615 22.3605 104.485 22.3605C110.58 22.3605 113.914 17.103 113.914 12.5422C113.914 12.3928 113.91 12.2439 113.903 12.0968C114.554 11.6144 115.114 11.0053 115.557 10.3098Z" fill="#00B2FF"/>
<rect x="0.511475" y="0.496582" width="30.0606" height="30.0606" rx="3.5" stroke="#D9D9D9"/>
<rect x="46.481" y="0.496582" width="30.0606" height="30.0606" rx="3.5" stroke="#D9D9D9"/>
<rect x="92.4512" y="0.496582" width="30.0606" height="30.0606" rx="3.5" stroke="#D9D9D9"/>
</svg>
