<svg width="255" height="21" viewBox="0 0 255 21" fill="none" xmlns="http://www.w3.org/2000/svg">
<path d="M30.7534 17H29.501V7.39062H26.1318V6.29199H34.1079V7.39062H30.7534V17ZM39.3409 8.82617C39.5021 8.82617 39.6705 8.83594 39.8463 8.85547C40.0221 8.87012 40.1783 8.89209 40.315 8.92139L40.1612 10.0493C40.0294 10.0151 39.8829 9.98828 39.7218 9.96875C39.5606 9.94922 39.4093 9.93945 39.2677 9.93945C38.9454 9.93945 38.6402 10.0054 38.3521 10.1372C38.0689 10.2642 37.8199 10.4497 37.6051 10.6938C37.3902 10.9331 37.2218 11.2236 37.0997 11.5654C36.9776 11.9023 36.9166 12.2783 36.9166 12.6934V17H35.6935V8.97266H36.7042L36.836 10.4521H36.8873C37.0533 10.1543 37.2535 9.8833 37.4879 9.63916C37.7223 9.39014 37.9933 9.19238 38.3009 9.0459C38.6134 8.89941 38.9601 8.82617 39.3409 8.82617ZM44.9841 8.84082C45.9411 8.84082 46.6516 9.05566 47.1154 9.48535C47.5793 9.91504 47.8112 10.6011 47.8112 11.5435V17H46.925L46.6906 15.8135H46.632C46.4074 16.1064 46.173 16.353 45.9289 16.5532C45.6848 16.7485 45.4016 16.8975 45.0793 17C44.7619 17.0977 44.3713 17.1465 43.9074 17.1465C43.4191 17.1465 42.9846 17.061 42.6037 16.8901C42.2277 16.7192 41.9299 16.4604 41.7102 16.1138C41.4953 15.7671 41.3879 15.3276 41.3879 14.7954C41.3879 13.9946 41.7053 13.3794 42.34 12.9497C42.9748 12.52 43.9416 12.2856 45.2404 12.2466L46.6247 12.188V11.6973C46.6247 11.0039 46.4758 10.5181 46.1779 10.2397C45.8801 9.96143 45.4602 9.82227 44.9182 9.82227C44.4982 9.82227 44.0979 9.8833 43.717 10.0054C43.3361 10.1274 42.9748 10.2715 42.633 10.4375L42.2595 9.51465C42.6208 9.3291 43.0358 9.17041 43.5046 9.03857C43.9733 8.90674 44.4665 8.84082 44.9841 8.84082ZM46.6101 13.0449L45.3869 13.0962C44.3859 13.1353 43.6804 13.2988 43.2702 13.5869C42.8601 13.875 42.655 14.2827 42.655 14.8101C42.655 15.269 42.7941 15.6084 43.0725 15.8281C43.3508 16.0479 43.7194 16.1577 44.1784 16.1577C44.8913 16.1577 45.4748 15.96 45.9289 15.5645C46.383 15.1689 46.6101 14.5757 46.6101 13.7847V13.0449ZM52.2313 17L49.1844 8.97266H50.4881L52.2532 13.8286C52.3753 14.1606 52.4998 14.5269 52.6268 14.9272C52.7537 15.3276 52.8416 15.6499 52.8904 15.894H52.9417C53.0003 15.6499 53.0979 15.3276 53.2347 14.9272C53.3714 14.522 53.4959 14.1558 53.6082 13.8286L55.3733 8.97266H56.6771L53.6229 17H52.2313ZM61.2069 8.82617C61.8905 8.82617 62.4765 8.97754 62.9647 9.28027C63.453 9.58301 63.8266 10.0078 64.0854 10.5547C64.3441 11.0967 64.4735 11.7314 64.4735 12.459V13.2134H58.9291C58.9438 14.1558 59.1781 14.8735 59.6322 15.3667C60.0863 15.8599 60.726 16.1064 61.5512 16.1064C62.059 16.1064 62.5082 16.0601 62.8988 15.9673C63.2895 15.8745 63.6947 15.7378 64.1146 15.5571V16.6265C63.7094 16.8071 63.3065 16.939 62.9062 17.022C62.5106 17.105 62.0419 17.1465 61.4999 17.1465C60.7284 17.1465 60.0546 16.9902 59.4784 16.6777C58.9071 16.3604 58.4628 15.8965 58.1454 15.2861C57.828 14.6758 57.6693 13.9287 57.6693 13.0449C57.6693 12.1807 57.8134 11.4336 58.1015 10.8037C58.3944 10.1689 58.8046 9.68066 59.3319 9.33887C59.8642 8.99707 60.4892 8.82617 61.2069 8.82617ZM61.1923 9.82227C60.5429 9.82227 60.0253 10.0347 59.6396 10.4595C59.2538 10.8843 59.0243 11.4775 58.9511 12.2393H63.1991C63.1942 11.7607 63.1186 11.3408 62.9721 10.9795C62.8305 10.6133 62.6132 10.3301 62.3202 10.1299C62.0272 9.9248 61.6513 9.82227 61.1923 9.82227ZM67.9121 17H66.689V5.60352H67.9121V17Z" fill="#797979"/>
<path d="M177.756 17H170.74V15.9819L173.604 13.0742C174.136 12.5371 174.583 12.0586 174.944 11.6387C175.31 11.2188 175.588 10.8062 175.779 10.4009C175.969 9.99072 176.064 9.5415 176.064 9.05322C176.064 8.44775 175.884 7.98633 175.522 7.66895C175.166 7.34668 174.695 7.18555 174.109 7.18555C173.596 7.18555 173.142 7.27344 172.747 7.44922C172.351 7.625 171.946 7.87402 171.531 8.19629L170.879 7.37598C171.162 7.13672 171.47 6.92432 171.802 6.73877C172.139 6.55322 172.498 6.40674 172.878 6.29932C173.264 6.19189 173.674 6.13818 174.109 6.13818C174.768 6.13818 175.337 6.25293 175.815 6.48242C176.294 6.71191 176.663 7.03906 176.921 7.46387C177.185 7.88867 177.317 8.39404 177.317 8.97998C177.317 9.54639 177.205 10.0737 176.98 10.562C176.755 11.0454 176.44 11.5264 176.035 12.0049C175.63 12.4785 175.156 12.9814 174.614 13.5137L172.285 15.8354V15.8867H177.756V17ZM188.823 7.23682C188.232 7.23682 187.7 7.33936 187.226 7.54443C186.758 7.74463 186.357 8.0376 186.025 8.42334C185.698 8.8042 185.446 9.26562 185.271 9.80762C185.095 10.3496 185.007 10.96 185.007 11.6387C185.007 12.5371 185.146 13.3184 185.425 13.9824C185.708 14.6416 186.128 15.1519 186.684 15.5132C187.246 15.8745 187.946 16.0552 188.786 16.0552C189.265 16.0552 189.714 16.0161 190.134 15.938C190.559 15.855 190.971 15.7524 191.372 15.6304V16.7144C190.981 16.8608 190.571 16.9683 190.141 17.0366C189.712 17.1099 189.201 17.1465 188.611 17.1465C187.522 17.1465 186.611 16.9219 185.879 16.4727C185.151 16.0186 184.604 15.3789 184.238 14.5537C183.877 13.7285 183.696 12.7544 183.696 11.6313C183.696 10.8208 183.808 10.0811 184.033 9.41211C184.262 8.73828 184.594 8.15723 185.029 7.66895C185.468 7.18066 186.006 6.80469 186.64 6.54102C187.28 6.27246 188.012 6.13818 188.838 6.13818C189.38 6.13818 189.902 6.19189 190.405 6.29932C190.908 6.40674 191.362 6.56055 191.767 6.76074L191.269 7.81543C190.927 7.65918 190.551 7.5249 190.141 7.4126C189.736 7.29541 189.297 7.23682 188.823 7.23682ZM200.582 12.9717C200.582 13.6309 200.496 14.2192 200.325 14.7368C200.155 15.2544 199.908 15.6914 199.586 16.0479C199.263 16.4043 198.873 16.6777 198.414 16.8682C197.96 17.0537 197.445 17.1465 196.868 17.1465C196.331 17.1465 195.838 17.0537 195.389 16.8682C194.945 16.6777 194.559 16.4043 194.232 16.0479C193.909 15.6914 193.658 15.2544 193.477 14.7368C193.302 14.2192 193.214 13.6309 193.214 12.9717C193.214 12.0928 193.363 11.3457 193.66 10.7305C193.958 10.1104 194.383 9.63916 194.935 9.31689C195.492 8.98975 196.153 8.82617 196.92 8.82617C197.652 8.82617 198.292 8.98975 198.839 9.31689C199.39 9.64404 199.818 10.1177 200.12 10.7378C200.428 11.353 200.582 12.0977 200.582 12.9717ZM194.473 12.9717C194.473 13.6162 194.559 14.1753 194.73 14.6489C194.901 15.1226 195.164 15.4888 195.521 15.7476C195.877 16.0063 196.336 16.1357 196.898 16.1357C197.454 16.1357 197.911 16.0063 198.267 15.7476C198.629 15.4888 198.895 15.1226 199.066 14.6489C199.237 14.1753 199.322 13.6162 199.322 12.9717C199.322 12.332 199.237 11.7803 199.066 11.3164C198.895 10.8477 198.631 10.4863 198.275 10.2324C197.918 9.97852 197.457 9.85156 196.89 9.85156C196.055 9.85156 195.443 10.1274 195.052 10.6792C194.666 11.231 194.473 11.9951 194.473 12.9717ZM211.55 8.82617C212.433 8.82617 213.1 9.05811 213.549 9.52197C213.998 9.98096 214.223 10.7207 214.223 11.7412V17H213.022V11.7998C213.022 11.1504 212.88 10.6646 212.597 10.3423C212.319 10.0151 211.904 9.85156 211.352 9.85156C210.576 9.85156 210.012 10.0762 209.66 10.5254C209.308 10.9746 209.133 11.6362 209.133 12.5103V17H207.924V11.7998C207.924 11.3652 207.861 11.0039 207.734 10.7158C207.612 10.4277 207.426 10.2129 207.177 10.0713C206.933 9.9248 206.623 9.85156 206.247 9.85156C205.715 9.85156 205.288 9.96143 204.965 10.1812C204.643 10.4009 204.409 10.728 204.262 11.1626C204.121 11.5923 204.05 12.1221 204.05 12.752V17H202.834V8.97266H203.815L203.998 10.1079H204.064C204.225 9.82959 204.428 9.59521 204.672 9.40479C204.916 9.21436 205.19 9.07031 205.493 8.97266C205.795 8.875 206.118 8.82617 206.459 8.82617C207.07 8.82617 207.58 8.94092 207.99 9.17041C208.405 9.39502 208.705 9.73926 208.891 10.2031H208.957C209.221 9.73926 209.582 9.39502 210.041 9.17041C210.5 8.94092 211.003 8.82617 211.55 8.82617ZM225.586 8.82617C226.47 8.82617 227.137 9.05811 227.586 9.52197C228.035 9.98096 228.26 10.7207 228.26 11.7412V17H227.059V11.7998C227.059 11.1504 226.917 10.6646 226.634 10.3423C226.355 10.0151 225.94 9.85156 225.389 9.85156C224.612 9.85156 224.048 10.0762 223.697 10.5254C223.345 10.9746 223.169 11.6362 223.169 12.5103V17H221.961V11.7998C221.961 11.3652 221.897 11.0039 221.771 10.7158C221.648 10.4277 221.463 10.2129 221.214 10.0713C220.97 9.9248 220.66 9.85156 220.284 9.85156C219.751 9.85156 219.324 9.96143 219.002 10.1812C218.68 10.4009 218.445 10.728 218.299 11.1626C218.157 11.5923 218.086 12.1221 218.086 12.752V17H216.871V8.97266H217.852L218.035 10.1079H218.101C218.262 9.82959 218.465 9.59521 218.709 9.40479C218.953 9.21436 219.227 9.07031 219.529 8.97266C219.832 8.875 220.154 8.82617 220.496 8.82617C221.106 8.82617 221.617 8.94092 222.027 9.17041C222.442 9.39502 222.742 9.73926 222.928 10.2031H222.994C223.257 9.73926 223.619 9.39502 224.078 9.17041C224.537 8.94092 225.04 8.82617 225.586 8.82617ZM233.998 8.82617C234.682 8.82617 235.268 8.97754 235.756 9.28027C236.244 9.58301 236.618 10.0078 236.877 10.5547C237.135 11.0967 237.265 11.7314 237.265 12.459V13.2134H231.72C231.735 14.1558 231.969 14.8735 232.423 15.3667C232.878 15.8599 233.517 16.1064 234.342 16.1064C234.85 16.1064 235.299 16.0601 235.69 15.9673C236.081 15.8745 236.486 15.7378 236.906 15.5571V16.6265C236.501 16.8071 236.098 16.939 235.697 17.022C235.302 17.105 234.833 17.1465 234.291 17.1465C233.52 17.1465 232.846 16.9902 232.27 16.6777C231.698 16.3604 231.254 15.8965 230.937 15.2861C230.619 14.6758 230.461 13.9287 230.461 13.0449C230.461 12.1807 230.605 11.4336 230.893 10.8037C231.186 10.1689 231.596 9.68066 232.123 9.33887C232.655 8.99707 233.28 8.82617 233.998 8.82617ZM233.983 9.82227C233.334 9.82227 232.817 10.0347 232.431 10.4595C232.045 10.8843 231.816 11.4775 231.742 12.2393H235.99C235.985 11.7607 235.91 11.3408 235.763 10.9795C235.622 10.6133 235.404 10.3301 235.111 10.1299C234.818 9.9248 234.442 9.82227 233.983 9.82227ZM243.281 8.82617C244.234 8.82617 244.954 9.06055 245.442 9.5293C245.93 9.99316 246.175 10.7402 246.175 11.7705V17H244.973V11.8511C244.973 11.1821 244.82 10.6816 244.512 10.3496C244.209 10.0176 243.743 9.85156 243.113 9.85156C242.224 9.85156 241.599 10.103 241.238 10.606C240.877 11.1089 240.696 11.8389 240.696 12.7959V17H239.48V8.97266H240.462L240.645 10.1299H240.711C240.882 9.84668 241.099 9.60986 241.363 9.41943C241.626 9.22412 241.922 9.07764 242.249 8.97998C242.576 8.87744 242.92 8.82617 243.281 8.82617ZM251.422 16.1504C251.622 16.1504 251.827 16.1333 252.037 16.0991C252.247 16.0649 252.418 16.0234 252.55 15.9746V16.9194C252.408 16.9829 252.211 17.0366 251.957 17.0806C251.708 17.1245 251.464 17.1465 251.224 17.1465C250.8 17.1465 250.414 17.0732 250.067 16.9268C249.721 16.7754 249.442 16.5215 249.232 16.165C249.027 15.8086 248.925 15.3154 248.925 14.6855V9.9248H247.782V9.33154L248.932 8.85547L249.415 7.1123H250.148V8.97266H252.499V9.9248H250.148V14.6489C250.148 15.1519 250.262 15.5278 250.492 15.7769C250.726 16.0259 251.036 16.1504 251.422 16.1504Z" fill="#797979"/>
<path d="M17.7504 15.1722L17.2115 14.8439C18.3196 13.2633 18.9098 11.4129 18.9098 9.45505C18.9098 4.24155 14.6685 0 9.4548 0C8.50745 0 7.57824 0.138555 6.6951 0.411002C2.69055 1.62961 0 5.26382 0 9.45505C0 10.9724 0.349118 12.4214 1.03742 13.7597C2.6614 16.9362 5.88655 18.9094 9.45475 18.9094C10.2598 18.9094 11.0493 18.8004 11.8143 18.6025C11.8139 18.6082 11.8122 18.6138 11.8122 18.62V20.5641C11.8122 20.7314 11.9077 20.8836 12.0579 20.9564C12.1185 20.9852 12.1831 21 12.2481 21C12.3444 21 12.44 20.9681 12.5184 20.9058L14.0349 19.7071L15.5518 20.9058C15.683 21.0099 15.8626 21.0288 16.0121 20.9564C16.1629 20.8832 16.2578 20.7311 16.2578 20.5641V18.62C16.2578 18.4727 16.1833 18.3353 16.0599 18.2548L15.2334 17.7165L15.2981 16.542L17.4005 17.1554C17.5313 17.1947 17.6744 17.1681 17.7841 17.0857C17.8939 17.0038 17.9585 16.8744 17.9585 16.737V15.5449C17.9592 15.3925 17.88 15.2508 17.75 15.1718L17.7504 15.1722ZM18.0382 9.45554C18.0382 11.2511 17.4912 12.9467 16.4658 14.3901L15.5099 13.8077C15.4593 13.7592 15.428 13.6903 15.4258 13.6543C15.4459 13.3541 15.5823 10.7063 14.1451 10.3348C14.0737 10.3161 13.9986 10.3161 13.9272 10.3348C13.3657 10.48 13.0466 10.9725 12.8645 11.5339L11.8175 11.2371L11.5088 11.1447C10.4457 10.8304 9.44137 10.5336 9.17883 9.51429C9.08503 9.1498 9.1366 8.74539 9.31388 8.45799C9.44991 8.23828 9.64393 8.09973 9.89322 8.04563C9.96639 8.02948 10.0479 8.0213 10.1355 8.0213C12.3164 8.0213 13.3402 7.55698 14.0377 4.68053C14.1885 4.05934 14.5094 3.46077 14.9749 2.89194C16.8454 4.46725 18.0381 6.82352 18.0381 9.45553L18.0382 9.45554ZM6.63574 1.35505C7.18897 2.28138 7.44529 3.05336 7.33808 3.49839C7.29974 3.65583 7.21898 3.76305 7.07692 3.84576L6.94128 3.92341C5.40896 4.8036 2.84451 6.27559 4.31569 8.91273C4.82868 9.82989 4.78119 10.8687 4.18667 11.764C3.60734 12.6359 2.65261 13.1551 1.70512 13.1358C1.15417 11.9841 0.871654 10.7484 0.871654 9.45545C0.872043 5.76326 3.17556 2.5531 6.63565 1.35497L6.63574 1.35505ZM2.16881 13.9855C3.24205 13.8516 4.26547 13.2202 4.91251 12.2462C5.6837 11.0871 5.74463 9.68131 5.07676 8.48721C4.10296 6.74143 5.47745 5.76882 7.37543 4.67904L7.51282 4.60023C7.85941 4.39881 8.09177 4.08844 8.18458 3.70235C8.3424 3.04928 8.11004 2.17452 7.49723 1.09854C8.13242 0.94947 8.78843 0.871823 9.45495 0.871823C11.2439 0.871823 12.9057 1.42331 14.2823 2.36344C13.744 3.02742 13.37 3.73345 13.1899 4.4745C12.5662 7.04637 11.8464 7.1493 10.1347 7.1493C9.98424 7.1493 9.83965 7.16409 9.70654 7.19367C9.2249 7.29837 8.83218 7.57723 8.57143 8.00048C8.26979 8.48952 8.18086 9.13639 8.33382 9.73147C8.71913 11.2297 10.1284 11.6464 11.2615 11.9807L12.683 12.3878C12.6102 12.9854 12.6373 13.5068 12.6455 13.6154C12.6437 13.6868 12.6124 13.7588 12.5618 13.8076L10.3211 15.173C10.1911 15.2518 10.1123 15.3931 10.1123 15.5452V16.7374C10.1123 16.8742 10.1769 17.0038 10.2867 17.0861C10.396 17.1684 10.5387 17.1951 10.6702 17.1558L12.7721 16.5424L12.8174 17.3615L12.5991 17.4417C11.5983 17.8375 10.5402 18.0385 9.45531 18.0385C6.45683 18.0381 3.72818 16.5011 2.16886 13.9855L2.16881 13.9855ZM17.0879 16.1563L15.0166 15.5517C14.8889 15.5133 14.7512 15.5377 14.6426 15.6145C14.534 15.6916 14.4668 15.8138 14.4594 15.9467L14.3505 17.921C14.3413 18.0761 14.4166 18.2248 14.5474 18.3102L15.3873 18.8572V19.6654L14.3063 18.8111C14.2269 18.7483 14.1315 18.7169 14.036 18.7169C13.9404 18.7169 13.8451 18.7483 13.7657 18.8111L12.6851 19.665L12.6853 18.8568L13.5248 18.3098C13.6556 18.2248 13.7311 18.0761 13.7217 17.9206L13.6128 15.9464C13.6054 15.8135 13.5382 15.6914 13.4296 15.6142C13.321 15.5371 13.1829 15.5136 13.0556 15.5513L10.9847 16.156V15.7893L13.0469 14.5326C13.0634 14.523 13.0792 14.5112 13.0944 14.4995C13.3516 14.2907 13.5098 13.9676 13.5169 13.5957C13.462 12.7667 13.5945 11.5135 14.0361 11.227C14.478 11.5135 14.6105 12.7688 14.5549 13.6337C14.5619 13.9672 14.7201 14.2907 14.9778 14.4995C14.9929 14.5112 15.0087 14.523 15.0252 14.533L17.088 15.7893L17.0879 16.1563Z" fill="#DA8907"/>
</svg>
